<svg id="Capa_1" data-name="Capa 1" xmlns="http://www.w3.org/2000/svg" xmlns:xlink="http://www.w3.org/1999/xlink" viewBox="0 0 249.34 184.23">
  <defs>
    <style>
      .cls-1 {
        fill: none;
      }

      .cls-2 {
        font-size: 41.36px;
        font-family: ValentineCute, Valentine Cute;
      }

      .cls-2, .cls-5 {
        fill: #3358a4;
      }

      .cls-3 {
        clip-path: url(#clip-path);
      }

      .cls-4 {
        fill: #3359a3;
      }

      .cls-6 {
        letter-spacing: -0.04em;
      }
    </style>
    <clipPath id="clip-path" transform="translate(-172.97 -32.94)">
      <rect class="cls-1" x="260.58" y="122.48" width="62.39" height="50.93"/>
    </clipPath>
  </defs>
  <g>
    <text class="cls-2" transform="translate(54.17 54.91)">Spot</text>
    <g>
      <g class="cls-3">
        <g>
          <path class="cls-4" d="M308.06,186.81a3,3,0,0,1-.44-1c0-7.36-.07-14.72,0-22.08a27.83,27.83,0,0,1,3.95-13.69,10.74,10.74,0,0,0,1.62-5.58,6.56,6.56,0,0,0-5.39-6.59,8.29,8.29,0,0,0-2.17,0c-.89.06-1.09-.09-1.15-1a7.58,7.58,0,0,0-3.15-6.13,6.51,6.51,0,0,0-8.41.9c-1.11,1.09-1.13,1.09-2.23,0a6.37,6.37,0,0,0-6.67-1.76,6.86,6.86,0,0,0-4.69,5.38,12.79,12.79,0,0,0-.24,1.86c-.05.6-.34.86-.94.76-4.58-.79-8.32,2.86-7.71,7.92a10.52,10.52,0,0,0,1.38,3.91,29.81,29.81,0,0,1,3.87,11,30.43,30.43,0,0,1,.29,3.93c0,7,0,14.07,0,21.11a1.15,1.15,0,0,1-.46,1.09h-.46a1,1,0,0,1-.46-1c0-6.81,0-13.62,0-20.43a28.81,28.81,0,0,0-3.94-14.84,11.68,11.68,0,0,1-1.68-6.2,7.92,7.92,0,0,1,6.6-7.8,19.76,19.76,0,0,1,2.11-.15c.44-3.34,1.87-6.14,5.16-7.53s6.3-.48,8.91,1.91c2.6-2.39,5.56-3.3,8.89-1.91s4.75,4.16,5.16,7.45a24.42,24.42,0,0,1,3.11.47,8,8,0,0,1,5.6,7.5,11.24,11.24,0,0,1-1.6,6.11,28.08,28.08,0,0,0-3.57,9.64,31.9,31.9,0,0,0-.41,4.78c0,7,0,14,0,20.94a1.08,1.08,0,0,1-.47,1.08Z" transform="translate(-172.97 -32.94)"/>
          <path class="cls-4" d="M310.55,144.89a7,7,0,0,1-3.71,5.92c-2.74,1.46-5.44.07-5.94-3a6.91,6.91,0,0,1,4.67-7.23,3.81,3.81,0,0,1,4.9,3.31C310.51,144.21,310.52,144.51,310.55,144.89Zm-1.51-.13c0-.15,0-.3,0-.46a2.45,2.45,0,0,0-2.52-2.4,5.24,5.24,0,0,0-4,6.34,2.23,2.23,0,0,0,2.85,1.59A5.37,5.37,0,0,0,309,144.76Z" transform="translate(-172.97 -32.94)"/>
          <path class="cls-4" d="M273.11,144.81c0-2.25,1.17-3.9,3.09-4.29a4.21,4.21,0,0,1,2.52.32,6.93,6.93,0,0,1,3.94,7.25,3.78,3.78,0,0,1-5.09,3A6.89,6.89,0,0,1,273.11,144.81Zm5.74,5.19a2.32,2.32,0,0,0,2.2-1.61,4.89,4.89,0,0,0,.16-2,5.11,5.11,0,0,0-3.38-4.3,2.34,2.34,0,0,0-3.26,2,5.57,5.57,0,0,0,2.84,5.44A8.39,8.39,0,0,0,278.85,150Z" transform="translate(-172.97 -32.94)"/>
          <path class="cls-4" d="M281.79,137.59a6.14,6.14,0,0,1,1-3.67,3.64,3.64,0,0,1,4.9-1.13,6.39,6.39,0,0,1,3.17,5.32,5.85,5.85,0,0,1-.82,3.67,3.69,3.69,0,0,1-5.25,1.28A6.43,6.43,0,0,1,281.79,137.59Zm1.46-.34a5.58,5.58,0,0,0,1.71,4.17,2.47,2.47,0,0,0,4.18-1,5,5,0,0,0,.22-2.75,4.89,4.89,0,0,0-2.33-3.56,2.26,2.26,0,0,0-3.14.81A4.08,4.08,0,0,0,283.25,137.25Z" transform="translate(-172.97 -32.94)"/>
          <path class="cls-4" d="M301.82,137.1a7.11,7.11,0,0,1-1.92,5.09c-2.42,2.5-5.85,1.72-6.87-1.59a6.69,6.69,0,0,1,1.59-6.84,4,4,0,0,1,4.08-1.33,4.18,4.18,0,0,1,2.94,3.35A8.71,8.71,0,0,1,301.82,137.1Zm-1.44-.1a9.07,9.07,0,0,0-.43-1.63,2.4,2.4,0,0,0-3.93-1,5.54,5.54,0,0,0-1.55,6,2.44,2.44,0,0,0,4.18,1A5.77,5.77,0,0,0,300.38,137Z" transform="translate(-172.97 -32.94)"/>
          <path class="cls-4" d="M295,146.7h.62l.11,0a4,4,0,0,1,1.91.73,4.27,4.27,0,0,1,.53,6.45l-6.07,6.24c-.2.21-.31.21-.51,0q-3-3.12-6.08-6.25A4.17,4.17,0,0,1,284.4,152c-.06-.27-.1-.54-.14-.81v-.53c0-.19.05-.38.09-.56a4.09,4.09,0,0,1,2.94-3.21,7,7,0,0,1,.77-.16h.57c.24.05.49.08.73.14a4.12,4.12,0,0,1,2,1.17c.16.17.34.32.49.46.21-.19.43-.4.64-.61a4,4,0,0,1,1.69-1C294.41,146.8,294.69,146.76,295,146.7Z" transform="translate(-172.97 -32.94)"/>
        </g>
      </g>
      <path class="cls-5" d="M332.08,148c-.14,1.14-.27,2.29-.44,3.42a39.34,39.34,0,0,1-12.32,23.73,38.48,38.48,0,0,1-19.34,10,39.21,39.21,0,0,1-26.48-3.73,1.57,1.57,0,0,0-2.27.31q-16,16-32,32a10.6,10.6,0,0,1-11.35,2.85c-5.84-1.8-9-9-6.19-14.49a14.49,14.49,0,0,1,2.58-3.59q15.94-16,32-32a1.37,1.37,0,0,0,.33-1.92c-6.54-13.09-6.41-26.16.83-38.87,5.63-9.89,14.27-16.13,25.37-18.81,2.31-.55,4.7-.76,7.06-1.12h4.35c2,.29,4.1.46,6.11.89a40.09,40.09,0,0,1,31.33,33.65c.15,1.11.29,2.22.43,3.33ZM292,177a31.17,31.17,0,1,0-31.17-31.2A31.17,31.17,0,0,0,292,177Z" transform="translate(-172.97 -32.94)"/>
    </g>
    <text class="cls-2" transform="translate(0 119.05)">my</text>
    <text class="cls-2" transform="translate(168.53 124.35)"><tspan class="cls-6">P</tspan><tspan x="28.69" y="0">et</tspan></text>
  </g>
</svg>
